{
  "accessors": [
    {
      "bufferView": 2,
      "componentType": 5126,
      "count": 8048,
      "max": [
        3.0708978176116943,
        0.6497264504432678,
        3.514559507369995
      ],
      "min": [
        -3.2239019870758057,
        -0.5707032084465027,
        -3.4436190128326416
      ],
      "type": "VEC3"
    },
    {
      "bufferView": 2,
      "byteOffset": 96576,
      "componentType": 5126,
      "count": 8048,
      "max": [
        1.0,
        1.0,
        0.9999133944511414
      ],
      "min": [
        -1.0,
        -1.0,
        -0.9999132752418518
      ],
      "type": "VEC3"
    },
    {
      "bufferView": 1,
      "componentType": 5126,
      "count": 8048,
      "max": [
        0.0,
        0.0
      ],
      "min": [
        0.0,
        0.0
      ],
      "type": "VEC2"
    },
    {
      "bufferView": 1,
      "byteOffset": 64384,
      "componentType": 5126,
      "count": 8048,
      "max": [
        0.0,
        0.0
      ],
      "min": [
        0.0,
        0.0
      ],
      "type": "VEC2"
    },
    {
      "bufferView": 1,
      "byteOffset": 128768,
      "componentType": 5126,
      "count": 8048,
      "max": [
        0.0,
        0.0
      ],
      "min": [
        0.0,
        0.0
      ],
      "type": "VEC2"
    },
    {
      "bufferView": 1,
      "byteOffset": 193152,
      "componentType": 5126,
      "count": 8048,
      "max": [
        0.0,
        0.0
      ],
      "min": [
        0.0,
        0.0
      ],
      "type": "VEC2"
    },
    {
      "bufferView": 1,
      "byteOffset": 257536,
      "componentType": 5126,
      "count": 8048,
      "max": [
        0.0,
        0.0
      ],
      "min": [
        0.0,
        0.0
      ],
      "type": "VEC2"
    },
    {
      "bufferView": 0,
      "componentType": 5125,
      "count": 47808,
      "type": "SCALAR"
    },
    {
      "bufferView": 2,
      "byteOffset": 193152,
      "componentType": 5126,
      "count": 1943,
      "max": [
        0.002048790454864502,
        0.4419758915901184,
        2.7299723625183105
      ],
      "min": [
        -3.2582342624664307,
        -0.47744208574295044,
        -2.659031867980957
      ],
      "type": "VEC3"
    },
    {
      "bufferView": 2,
      "byteOffset": 216468,
      "componentType": 5126,
      "count": 1943,
      "max": [
        1.0,
        1.0,
        0.998215913772583
      ],
      "min": [
        -0.999937117099762,
        -1.0,
        -0.9982159733772278
      ],
      "type": "VEC3"
    },
    {
      "bufferView": 1,
      "byteOffset": 321920,
      "componentType": 5126,
      "count": 1943,
      "max": [
        1.0136349201202393,
        0.9339937567710876
      ],
      "min": [
        -0.008557803928852081,
        0.0
      ],
      "type": "VEC2"
    },
    {
      "bufferView": 1,
      "byteOffset": 337464,
      "componentType": 5126,
      "count": 1943,
      "max": [
        0.0,
        0.0
      ],
      "min": [
        0.0,
        0.0
      ],
      "type": "VEC2"
    },
    {
      "bufferView": 1,
      "byteOffset": 353008,
      "componentType": 5126,
      "count": 1943,
      "max": [
        0.0,
        0.0
      ],
      "min": [
        0.0,
        0.0
      ],
      "type": "VEC2"
    },
    {
      "bufferView": 1,
      "byteOffset": 368552,
      "componentType": 5126,
      "count": 1943,
      "max": [
        0.0,
        0.0
      ],
      "min": [
        0.0,
        0.0
      ],
      "type": "VEC2"
    },
    {
      "bufferView": 1,
      "byteOffset": 384096,
      "componentType": 5126,
      "count": 1943,
      "max": [
        0.0,
        0.0
      ],
      "min": [
        0.0,
        0.0
      ],
      "type": "VEC2"
    },
    {
      "bufferView": 0,
      "byteOffset": 191232,
      "componentType": 5125,
      "count": 9930,
      "type": "SCALAR"
    },
    {
      "bufferView": 2,
      "byteOffset": 239784,
      "componentType": 5126,
      "count": 420,
      "max": [
        -2.6061277389526367,
        0.45769786834716797,
        0.4712418019771576
      ],
      "min": [
        -2.9203686714172363,
        0.05995875597000122,
        -0.40032830834388733
      ],
      "type": "VEC3"
    },
    {
      "bufferView": 2,
      "byteOffset": 244824,
      "componentType": 5126,
      "count": 420,
      "max": [
        0.986579418182373,
        0.9982496500015259,
        0.9630825519561768
      ],
      "min": [
        -0.9998799562454224,
        -0.9805570840835571,
        -0.963082492351532
      ],
      "type": "VEC3"
    },
    {
      "bufferView": 1,
      "byteOffset": 399640,
      "componentType": 5126,
      "count": 420,
      "max": [
        8.114838600158691,
        47.753421783447266
      ],
      "min": [
        -0.004311689175665379,
        -10.26072883605957
      ],
      "type": "VEC2"
    },
    {
      "bufferView": 1,
      "byteOffset": 403000,
      "componentType": 5126,
      "count": 420,
      "max": [
        0.0,
        0.0
      ],
      "min": [
        0.0,
        0.0
      ],
      "type": "VEC2"
    },
    {
      "bufferView": 1,
      "byteOffset": 406360,
      "componentType": 5126,
      "count": 420,
      "max": [
        0.0,
        0.0
      ],
      "min": [
        0.0,
        0.0
      ],
      "type": "VEC2"
    },
    {
      "bufferView": 1,
      "byteOffset": 409720,
      "componentType": 5126,
      "count": 420,
      "max": [
        0.0,
        0.0
      ],
      "min": [
        0.0,
        0.0
      ],
      "type": "VEC2"
    },
    {
      "bufferView": 1,
      "byteOffset": 413080,
      "componentType": 5126,
      "count": 420,
      "max": [
        0.0,
        0.0
      ],
      "min": [
        0.0,
        0.0
      ],
      "type": "VEC2"
    },
    {
      "bufferView": 0,
      "byteOffset": 230952,
      "componentType": 5125,
      "count": 1872,
      "type": "SCALAR"
    },
    {
      "bufferView": 2,
      "byteOffset": 249864,
      "componentType": 5126,
      "count": 328,
      "max": [
        0.6221129894256592,
        0.20047929883003235,
        3.003075122833252
      ],
      "min": [
        -0.7404031753540039,
        -0.3049169182777405,
        -2.9321341514587402
      ],
      "type": "VEC3"
    },
    {
      "bufferView": 2,
      "byteOffset": 253800,
      "componentType": 5126,
      "count": 328,
      "max": [
        0.9028105735778809,
        0.9990217089653015,
        0.9406031370162964
      ],
      "min": [
        -0.8528551459312439,
        -0.9992691874504089,
        -0.9406012296676636
      ],
      "type": "VEC3"
    },
    {
      "bufferView": 1,
      "byteOffset": 416440,
      "componentType": 5126,
      "count": 328,
      "max": [
        0.0,
        0.0
      ],
      "min": [
        0.0,
        0.0
      ],
      "type": "VEC2"
    },
    {
      "bufferView": 1,
      "byteOffset": 419064,
      "componentType": 5126,
      "count": 328,
      "max": [
        0.0,
        0.0
      ],
      "min": [
        0.0,
        0.0
      ],
      "type": "VEC2"
    },
    {
      "bufferView": 1,
      "byteOffset": 421688,
      "componentType": 5126,
      "count": 328,
      "max": [
        0.0,
        0.0
      ],
      "min": [
        0.0,
        0.0
      ],
      "type": "VEC2"
    },
    {
      "bufferView": 1,
      "byteOffset": 424312,
      "componentType": 5126,
      "count": 328,
      "max": [
        0.0,
        0.0
      ],
      "min": [
        0.0,
        0.0
      ],
      "type": "VEC2"
    },
    {
      "bufferView": 1,
      "byteOffset": 426936,
      "componentType": 5126,
      "count": 328,
      "max": [
        0.0,
        0.0
      ],
      "min": [
        0.0,
        0.0
      ],
      "type": "VEC2"
    },
    {
      "bufferView": 0,
      "byteOffset": 238440,
      "componentType": 5125,
      "count": 1890,
      "type": "SCALAR"
    },
    {
      "bufferView": 2,
      "byteOffset": 257736,
      "componentType": 5126,
      "count": 4068,
      "max": [
        0.11861571669578552,
        0.6822738647460938,
        0.445310115814209
      ],
      "min": [
        -0.9356412887573242,
        0.535703182220459,
        -0.4443509876728058
      ],
      "type": "VEC3"
    },
    {
      "bufferView": 2,
      "byteOffset": 306552,
      "componentType": 5126,
      "count": 4068,
      "max": [
        0.9999916553497314,
        0.9999984502792358,
        0.9999997019767761
      ],
      "min": [
        -0.9999921321868896,
        -0.4908210039138794,
        -1.0
      ],
      "type": "VEC3"
    },
    {
      "bufferView": 1,
      "byteOffset": 429560,
      "componentType": 5126,
      "count": 4068,
      "max": [
        60.3645133972168,
        20.37921142578125
      ],
      "min": [
        -18.1353759765625,
        -26.7186279296875
      ],
      "type": "VEC2"
    },
    {
      "bufferView": 1,
      "byteOffset": 462104,
      "componentType": 5126,
      "count": 4068,
      "max": [
        29.033935546875,
        32.34214782714844
      ],
      "min": [
        -28.7984619140625,
        -30.341751098632813
      ],
      "type": "VEC2"
    },
    {
      "bufferView": 1,
      "byteOffset": 494648,
      "componentType": 5126,
      "count": 4068,
      "max": [
        0.0,
        0.0
      ],
      "min": [
        0.0,
        0.0
      ],
      "type": "VEC2"
    },
    {
      "bufferView": 1,
      "byteOffset": 527192,
      "componentType": 5126,
      "count": 4068,
      "max": [
        0.0,
        0.0
      ],
      "min": [
        0.0,
        0.0
      ],
      "type": "VEC2"
    },
    {
      "bufferView": 1,
      "byteOffset": 559736,
      "componentType": 5126,
      "count": 4068,
      "max": [
        0.0,
        0.0
      ],
      "min": [
        0.0,
        0.0
      ],
      "type": "VEC2"
    },
    {
      "bufferView": 0,
      "byteOffset": 246000,
      "componentType": 5125,
      "count": 21606,
      "type": "SCALAR"
    }
  ],
  "asset": {
    "extras": {
      "author": "integrart (https://sketchfab.com/integratinashe)",
      "license": "CC-BY-4.0 (http://creativecommons.org/licenses/by/4.0/)",
      "source": "https://sketchfab.com/3d-models/lamborghini-steering-wheel-8ae26f1177f84bf3800e6b588d74b46a",
      "title": "Lamborghini-Steering wheel"
    },
    "generator": "Sketchfab-16.7.0",
    "version": "2.0"
  },
  "bufferViews": [
    {
      "buffer": 0,
      "byteLength": 332424,
      "name": "floatBufferViews",
      "target": 34963
    },
    {
      "buffer": 0,
      "byteLength": 592280,
      "byteOffset": 332424,
      "byteStride": 8,
      "name": "floatBufferViews",
      "target": 34962
    },
    {
      "buffer": 0,
      "byteLength": 355368,
      "byteOffset": 924704,
      "byteStride": 12,
      "name": "floatBufferViews",
      "target": 34962
    }
  ],
  "buffers": [
    {
      "byteLength": 1280072,
      "uri": "scene.bin"
    }
  ],
  "materials": [
    {
      "doubleSided": true,
      "name": "leather",
      "pbrMetallicRoughness": {
        "baseColorFactor": [
          0.0,
          0.0,
          0.0,
          1.0
        ],
        "metallicFactor": 0.0,
        "roughnessFactor": 0.383636
      }
    },
    {
      "doubleSided": true,
      "name": "Material.001",
      "pbrMetallicRoughness": {
        "baseColorFactor": [
          0.0,
          0.0,
          0.0,
          1.0
        ],
        "metallicFactor": 0.0,
        "roughnessFactor": 0.281818
      }
    },
    {
      "doubleSided": true,
      "name": "Material.002",
      "pbrMetallicRoughness": {
        "baseColorFactor": [
          0.165499,
          0.0,
          0.000596066,
          1.0
        ],
        "metallicFactor": 0.0,
        "roughnessFactor": 0.0
      }
    },
    {
      "doubleSided": true,
      "name": "Material.003",
      "pbrMetallicRoughness": {
        "baseColorFactor": [
          0.0,
          0.0,
          0.0,
          1.0
        ],
        "metallicFactor": 0.0,
        "roughnessFactor": 0.0927273
      }
    },
    {
      "doubleSided": true,
      "name": "MetalGoldenLogo",
      "pbrMetallicRoughness": {
        "baseColorFactor": [
          0.627451,
          0.380392,
          0.0588235,
          1.0
        ],
        "roughnessFactor": 0.472197
      }
    }
  ],
  "meshes": [
    {
      "name": "Object_0",
      "primitives": [
        {
          "attributes": {
            "NORMAL": 1,
            "POSITION": 0,
            "TEXCOORD_0": 2,
            "TEXCOORD_1": 3,
            "TEXCOORD_2": 4,
            "TEXCOORD_3": 5,
            "TEXCOORD_4": 6
          },
          "indices": 7,
          "material": 0,
          "mode": 4
        }
      ]
    },
    {
      "name": "Object_1",
      "primitives": [
        {
          "attributes": {
            "NORMAL": 9,
            "POSITION": 8,
            "TEXCOORD_0": 10,
            "TEXCOORD_1": 11,
            "TEXCOORD_2": 12,
            "TEXCOORD_3": 13,
            "TEXCOORD_4": 14
          },
          "indices": 15,
          "material": 1,
          "mode": 4
        }
      ]
    },
    {
      "name": "Object_2",
      "primitives": [
        {
          "attributes": {
            "NORMAL": 17,
            "POSITION": 16,
            "TEXCOORD_0": 18,
            "TEXCOORD_1": 19,
            "TEXCOORD_2": 20,
            "TEXCOORD_3": 21,
            "TEXCOORD_4": 22
          },
          "indices": 23,
          "material": 2,
          "mode": 4
        }
      ]
    },
    {
      "name": "Object_3",
      "primitives": [
        {
          "attributes": {
            "NORMAL": 25,
            "POSITION": 24,
            "TEXCOORD_0": 26,
            "TEXCOORD_1": 27,
            "TEXCOORD_2": 28,
            "TEXCOORD_3": 29,
            "TEXCOORD_4": 30
          },
          "indices": 31,
          "material": 3,
          "mode": 4
        }
      ]
    },
    {
      "name": "Object_4",
      "primitives": [
        {
          "attributes": {
            "NORMAL": 33,
            "POSITION": 32,
            "TEXCOORD_0": 34,
            "TEXCOORD_1": 35,
            "TEXCOORD_2": 36,
            "TEXCOORD_3": 37,
            "TEXCOORD_4": 38
          },
          "indices": 39,
          "material": 4,
          "mode": 4
        }
      ]
    }
  ],
  "nodes": [
    {
      "children": [
        1
      ],
      "matrix": [
        1.0,
        0.0,
        0.0,
        0.0,
        0.0,
        2.220446049250313e-16,
        -1.0,
        0.0,
        0.0,
        1.0,
        2.220446049250313e-16,
        0.0,
        0.0,
        0.0,
        0.0,
        1.0
      ],
      "name": "Sketchfab_model"
    },
    {
      "children": [
        2
      ],
      "name": "root"
    },
    {
      "children": [
        3
      ],
      "matrix": [
        1.0,
        0.0,
        0.0,
        0.0,
        0.0,
        2.220446049250313e-16,
        1.0,
        0.0,
        0.0,
        -1.0,
        2.220446049250313e-16,
        0.0,
        0.0,
        0.0,
        0.0,
        1.0
      ],
      "name": "GLTF_SceneRootNode"
    },
    {
      "children": [
        4,
        5,
        6,
        7,
        8
      ],
      "matrix": [
        5.160786066664898e-08,
        0.6122385859489339,
        9.974632105894866e-08,
        0.0,
        0.6122385859489339,
        -5.1607844421308124e-08,
        -9.974632946693497e-08,
        0.0,
        -9.974632105894866e-08,
        9.974632946693497e-08,
        -0.6122385859489278,
        0.0,
        -0.20443513989448547,
        -0.12693022191524506,
        0.05660949647426605,
        1.0
      ],
      "name": "STEERING WHEEL_0"
    },
    {
      "mesh": 0,
      "name": "Object_4"
    },
    {
      "mesh": 1,
      "name": "Object_5"
    },
    {
      "mesh": 2,
      "name": "Object_6"
    },
    {
      "mesh": 3,
      "name": "Object_7"
    },
    {
      "mesh": 4,
      "name": "Object_8"
    }
  ],
  "scene": 0,
  "scenes": [
    {
      "name": "Sketchfab_Scene",
      "nodes": [
        0
      ]
    }
  ]
}
